<svg viewBox="0 0 50 50" xmlns="http://www.w3.org/2000/svg" xmlns:xlink="http://www.w3.org/1999/xlink" width="50.000000" height="50.000000" fill="none">
	<rect id="project" width="50.000000" height="50.000000" x="0.000000" y="0.000000" fill="rgb(52,84,122)" />
	<g id="Group">
		<g id="Group">
			<g id="Group">
				<path id="Vector" d="M49.1666 0L11.6667 0C11.2065 0 10.8334 0.373124 10.8334 0.833332L10.8334 13.3333L12.5 13.3333L12.5 1.66666L48.3333 1.66666L48.3333 47.4999C48.3413 47.9381 48.0032 48.3052 47.5658 48.3332C47.4941 48.3332 47.4224 48.3274 47.3508 48.3257C47.2033 48.3216 47.0558 48.3182 46.9108 48.3032C46.8983 48.3032 46.8866 48.3032 46.8741 48.2982C44.1525 48.0007 42.0026 45.8529 41.7025 43.1316C41.7025 43.1199 41.6983 43.1074 41.6966 43.0957C41.6764 42.8977 41.6664 42.6989 41.6666 42.4999L41.6666 40.8333C41.6666 40.373 41.2935 39.9999 40.8333 39.9999L12.5 39.9999L12.5 24.9999L10.8334 24.9999L10.8334 39.9999L4.16671 39.9999C3.7065 39.9999 3.33337 40.373 3.33337 40.8333L3.33337 42.4999C3.33796 46.6401 6.69316 49.9953 10.8334 49.9999L47.5833 49.9999C48.9356 49.9645 50.0104 48.8526 49.9999 47.4999L49.9999 0.833332C49.9999 0.373124 49.6268 0 49.1666 0ZM10.8334 48.3332C7.61326 48.3296 5.00368 45.72 5.00004 42.4999L5.00004 41.6666L40 41.6666L40 42.4999C40.0011 42.7747 40.0169 43.0493 40.0475 43.3224C40.055 43.3949 40.0691 43.4649 40.0791 43.5366C40.1066 43.7382 40.14 43.9391 40.1841 44.1366C40.1991 44.2057 40.2183 44.2741 40.2358 44.3432C40.2866 44.5441 40.3441 44.7416 40.4108 44.9366C40.43 44.9924 40.45 45.0474 40.4708 45.1032C40.5466 45.3099 40.6325 45.5116 40.7266 45.7107C40.7466 45.7516 40.765 45.7941 40.785 45.8316C40.8894 46.0427 41.0041 46.2479 41.1291 46.4474C41.1458 46.4741 41.1608 46.5016 41.1775 46.5307C41.3133 46.7435 41.46 46.9494 41.6166 47.1474L41.6433 47.1832C41.8252 47.4117 42.02 47.6295 42.2266 47.8357C42.4061 48.0135 42.5921 48.1802 42.785 48.3357L10.8334 48.3332Z" fill="rgb(255,255,255)" fill-rule="nonzero" />
				<path id="Vector" d="M27.4999 23.3333C27.721 23.3333 27.9329 23.2454 28.0891 23.0892L31.4224 19.7558C31.7477 19.4304 31.7477 18.9029 31.4224 18.5775L28.0891 15.2442C27.9329 15.0879 27.721 15 27.4999 15L4.16666 15C1.86552 15 0 16.8655 0 19.1667C0 21.4678 1.86552 23.3333 4.16666 23.3333L27.4999 23.3333ZM27.2849 16.7967L29.6549 19.1667L27.2849 21.5367L26.6924 19.1667L27.2849 16.7967ZM6.66665 16.6667L25.5999 16.6667L25.1833 18.3333L8.33332 18.3333L8.33332 20L25.1833 20L25.5999 21.6667L6.66665 21.6667L6.66665 16.6667ZM1.66666 19.1667C1.66666 17.7859 2.78593 16.6667 4.16666 16.6667L4.99999 16.6667L4.99999 21.6667L4.16666 21.6667C2.78593 21.6667 1.66666 20.5474 1.66666 19.1667Z" fill="rgb(255,255,255)" fill-rule="nonzero" />
				<path id="Vector" d="M19.1667 35.8333L44.1666 35.8333C44.6268 35.8333 44.9999 35.4601 44.9999 34.9999L44.9999 9.99999C44.9998 9.53979 44.6267 9.16677 44.1664 9.16687C43.9455 9.16687 43.7337 9.25468 43.5774 9.41083L18.5775 34.4108C18.2521 34.7363 18.2522 35.2639 18.5777 35.5893C18.734 35.7455 18.9457 35.8333 19.1667 35.8333ZM43.3333 12.0117L43.3333 14.1667L41.6666 14.1667L41.6666 15.8333L43.3333 15.8333L43.3333 17.5L41.6666 17.5L41.6666 19.1666L43.3333 19.1666L43.3333 20.8333L41.6666 20.8333L41.6666 22.5L43.3333 22.5L43.3333 24.1666L41.6666 24.1666L41.6666 25.8333L43.3333 25.8333L43.3333 27.5L41.6666 27.5L41.6666 29.1666L43.3333 29.1666L43.3333 30.8333L41.6666 30.8333L41.6666 32.4999L43.3333 32.4999L43.3333 34.1666L41.6666 34.1666L41.6666 32.4999L40 32.4999L40 34.1666L38.3333 34.1666L38.3333 32.4999L36.6666 32.4999L36.6666 34.1666L35 34.1666L35 32.4999L33.3333 32.4999L33.3333 34.1666L31.6666 34.1666L31.6666 32.4999L30 32.4999L30 34.1666L28.3333 34.1666L28.3333 32.4999L26.6666 32.4999L26.6666 34.1666L25 34.1666L25 32.4999L23.3333 32.4999L23.3333 34.1666L21.1783 34.1666L43.3333 12.0117Z" fill="rgb(255,255,255)" fill-rule="nonzero" />
				<path id="Vector" d="M31.2375 30.8333L39.1666 30.8333C39.6268 30.8333 40 30.4601 40 29.9999L40 22.0708C39.9999 21.6106 39.6267 21.2376 39.1664 21.2377C38.9455 21.2377 38.7337 21.3255 38.5775 21.4816L30.6483 29.4108C30.3229 29.7363 30.323 30.2639 30.6485 30.5893C30.8048 30.7455 31.0165 30.8333 31.2375 30.8333ZM38.3333 24.0833L38.3333 29.1666L33.25 29.1666L38.3333 24.0833Z" fill="rgb(255,255,255)" fill-rule="nonzero" />
				<path id="Vector" d="M38.3333 5L21.6666 5L21.6666 6.66666L38.3333 6.66666L38.3333 5Z" fill="rgb(255,255,255)" fill-rule="evenodd" />
				<path id="Vector" d="M40.8332 8.33325L19.1666 8.33325L19.1666 9.99992L40.8332 9.99992L40.8332 8.33325Z" fill="rgb(255,255,255)" fill-rule="evenodd" />
				<path id="Vector" d="M19.1666 25.8333L14.1666 25.8333L14.1666 27.4999L19.1666 27.4999L19.1666 25.8333Z" fill="rgb(255,255,255)" fill-rule="evenodd" />
				<path id="Vector" d="M17.5 29.1666L14.1666 29.1666L14.1666 30.8333L17.5 30.8333L17.5 29.1666Z" fill="rgb(255,255,255)" fill-rule="evenodd" />
			</g>
		</g>
	</g>
</svg>
