<svg viewBox="0 0 96 60" xmlns="http://www.w3.org/2000/svg" xmlns:xlink="http://www.w3.org/1999/xlink" width="96.000000" height="60.000000" fill="none" customFrame="#000000">
	<path id="WD" d="M14.6719 14.8594C14.5781 15.5625 14.5156 16.2812 14.4844 17.0156C14.4531 17.7344 14.4375 18.4844 14.4375 19.2656C14.4375 20.6562 14.5078 22.0781 14.6484 23.5312C14.7891 24.9688 15 26.4062 15.2812 27.8438C15.5625 29.2812 15.9141 30.6953 16.3359 32.0859C16.7578 33.4609 17.2422 34.7734 17.7891 36.0234C18.3516 37.2734 18.9766 38.4375 19.6641 39.5156C20.3672 40.5938 21.1406 41.5469 21.9844 42.375C22.9062 41.4219 23.6484 40.3281 24.2109 39.0938C24.7891 37.8438 25.2344 36.5469 25.5469 35.2031C25.875 33.8438 26.0938 32.4766 26.2031 31.1016C26.3125 29.7266 26.375 28.4219 26.3906 27.1875L31.5469 27.1875C31.5469 28.4219 31.6016 29.7188 31.7109 31.0781C31.8203 32.4375 32.0312 33.7891 32.3438 35.1328C32.6562 36.4609 33.0938 37.75 33.6562 39C34.2188 40.2344 34.9531 41.3438 35.8594 42.3281C37.1719 40.9062 38.3047 39.2969 39.2578 37.5C40.2109 35.6875 41 33.7891 41.625 31.8047C42.25 29.8203 42.7109 27.7891 43.0078 25.7109C43.3047 23.6328 43.4531 21.5938 43.4531 19.5938C43.4531 17.9219 43.3594 16.3125 43.1719 14.7656C44.5469 14.8281 45.7734 14.9219 46.8516 15.0469C47.9453 15.1719 48.8906 15.2969 49.6875 15.4219C50.5938 15.5781 51.4062 15.7344 52.125 15.8906L52.125 21.7969C51.6094 21.625 51.1016 21.4922 50.6016 21.3984C50.1172 21.2891 49.6406 21.1719 49.1719 21.0469C49.1719 24.4062 48.8438 27.5234 48.1875 30.3984C47.5469 33.2578 46.6484 35.9297 45.4922 38.4141C44.3359 40.8984 42.9531 43.2031 41.3438 45.3281C39.7344 47.4531 37.9688 49.4375 36.0469 51.2812C34.6719 49.9531 33.3906 48.4688 32.2031 46.8281C31.0312 45.1875 29.9531 43.3281 28.9688 41.25C27.9531 43.3281 26.8438 45.1953 25.6406 46.8516C24.4531 48.5078 23.1719 50 21.7969 51.3281C19.8906 49.4844 18.1484 47.5 16.5703 45.375C14.9922 43.25 13.6406 40.9453 12.5156 38.4609C11.3906 35.9766 10.5156 33.3047 9.89062 30.4453C9.26562 27.5703 8.95312 24.4531 8.95312 21.0938C8.39062 21.2188 7.84375 21.3359 7.3125 21.4453C6.79688 21.5391 6.28125 21.6719 5.76562 21.8438L5.76562 15.8906C5.76562 15.9062 5.96875 15.875 6.375 15.7969C6.79688 15.7188 7.39062 15.625 8.15625 15.5156C8.9375 15.3906 9.875 15.2734 10.9688 15.1641C12.0625 15.0391 13.2969 14.9375 14.6719 14.8594ZM71.8594 14.5781C74.2656 14.5781 76.5312 14.7891 78.6562 15.2109C80.7812 15.6328 82.6406 16.2188 84.2344 16.9688C85.8281 17.7188 87.0859 18.625 88.0078 19.6875C88.9297 20.7344 89.3906 21.8906 89.3906 23.1562L89.3906 41.8125C89.3906 43.0781 88.9297 44.2422 88.0078 45.3047C87.0859 46.3516 85.8281 47.25 84.2344 48C82.6406 48.75 80.7812 49.3359 78.6562 49.7578C76.5312 50.1797 74.2656 50.3906 71.8594 50.3906C70.5156 50.3906 69.1406 50.3438 67.7344 50.25C66.3281 50.1406 64.9609 50.0078 63.6328 49.8516C62.3203 49.6797 61.0859 49.4844 59.9297 49.2656C58.7734 49.0469 57.7812 48.8125 56.9531 48.5625L56.9531 16.4062C57.7812 16.1562 58.7734 15.9219 59.9297 15.7031C61.0859 15.4844 62.3203 15.2969 63.6328 15.1406C64.9609 14.9688 66.3281 14.8359 67.7344 14.7422C69.1406 14.6328 70.5156 14.5781 71.8594 14.5781ZM71.9531 19.875C70.5312 19.875 69.2969 19.9219 68.25 20.0156C67.2031 20.0938 66.3047 20.2031 65.5547 20.3438C64.8047 20.4688 64.1797 20.6094 63.6797 20.7656C63.1953 20.9062 62.7969 21.0312 62.4844 21.1406L62.4844 43.8281C62.7969 43.9531 63.1953 44.0859 63.6797 44.2266C64.1797 44.3672 64.8047 44.5078 65.5547 44.6484C66.3047 44.7734 67.2031 44.8828 68.25 44.9766C69.2969 45.0547 70.5312 45.0938 71.9531 45.0938C73.7031 45.0938 75.2734 44.9531 76.6641 44.6719C78.0703 44.3906 79.25 44.0156 80.2031 43.5469C81.1719 43.0781 81.9141 42.5391 82.4297 41.9297C82.9453 41.3047 83.2031 40.6562 83.2031 39.9844L83.2031 24.9844C83.2031 24.3125 82.9453 23.6719 82.4297 23.0625C81.9141 22.4375 81.1719 21.8906 80.2031 21.4219C79.25 20.9531 78.0703 20.5781 76.6641 20.2969C75.2734 20.0156 73.7031 19.875 71.9531 19.875Z" fill="rgb(52,84,122)" fill-rule="nonzero" />
</svg>
